<svg width="32" height="32" viewBox="0 0 32 32" fill="none" xmlns="http://www.w3.org/2000/svg">
<rect width="32" height="32" rx="8" fill="#C837AB"/>
<g clip-path="url(#clip0_401_660)">
<path d="M23.9845 12.704C23.9471 11.8539 23.8096 11.2694 23.6126 10.763C23.4095 10.2254 23.0969 9.74412 22.6874 9.34401C22.2873 8.93768 21.8028 8.62195 21.2715 8.42196C20.7621 8.22502 20.1807 8.08754 19.3306 8.05006C18.4741 8.0094 18.2022 8 16.0299 8C13.8576 8 13.5857 8.0094 12.7324 8.04688C11.8822 8.08437 11.2978 8.22197 10.7914 8.41878C10.2537 8.62195 9.77243 8.93451 9.37233 9.34401C8.966 9.74412 8.65039 10.2286 8.45028 10.7599C8.25334 11.2694 8.11586 11.8507 8.07838 12.7009C8.03772 13.5574 8.02832 13.8293 8.02832 16.0016C8.02832 18.1739 8.03772 18.4458 8.0752 19.2991C8.11269 20.1492 8.25029 20.7337 8.44722 21.2401C8.65039 21.7777 8.966 22.259 9.37233 22.6591C9.77243 23.0654 10.2569 23.3812 10.7883 23.5812C11.2978 23.7781 11.879 23.9156 12.7293 23.9531C13.5825 23.9907 13.8545 24 16.0268 24C18.1991 24 18.471 23.9907 19.3243 23.9531C20.1745 23.9156 20.7589 23.7781 21.2653 23.5812C22.3405 23.1654 23.1907 22.3153 23.6064 21.2401C23.8032 20.7306 23.9408 20.1492 23.9783 19.2991C24.0158 18.4458 24.0252 18.1739 24.0252 16.0016C24.0252 13.8293 24.022 13.5574 23.9845 12.704ZM22.5437 19.2366C22.5093 20.018 22.378 20.4399 22.2686 20.7212C21.9998 21.4183 21.4466 21.9715 20.7495 22.2403C20.4682 22.3497 20.0432 22.481 19.2649 22.5153C18.421 22.5529 18.1679 22.5622 16.033 22.5622C13.8982 22.5622 13.642 22.5529 12.8011 22.5153C12.0197 22.481 11.5977 22.3497 11.3164 22.2403C10.9696 22.1121 10.6538 21.909 10.3976 21.6433C10.1319 21.3838 9.92871 21.0713 9.80051 20.7244C9.69112 20.4431 9.55987 20.018 9.52556 19.2397C9.48795 18.3958 9.47868 18.1426 9.47868 16.0078C9.47868 13.873 9.48795 13.6167 9.52556 12.776C9.55987 11.9946 9.69112 11.5726 9.80051 11.2913C9.92871 10.9443 10.1319 10.6287 10.4007 10.3723C10.6601 10.1066 10.9726 9.90345 11.3196 9.77537C11.6009 9.66597 12.026 9.53472 12.8043 9.50029C13.6482 9.46281 13.9014 9.45341 16.0361 9.45341C18.1741 9.45341 18.4272 9.46281 19.2681 9.50029C20.0495 9.53472 20.4714 9.66597 20.7527 9.77537C21.0996 9.90345 21.4153 10.1066 21.6716 10.3723C21.9373 10.6317 22.1404 10.9443 22.2686 11.2913C22.378 11.5726 22.5093 11.9976 22.5437 12.776C22.5812 13.6199 22.5906 13.873 22.5906 16.0078C22.5906 18.1426 22.5812 18.3927 22.5437 19.2366Z" fill="white"/>
<path d="M16.0301 11.8916C13.761 11.8916 11.9199 13.7325 11.9199 16.0018C11.9199 18.271 13.761 20.112 16.0301 20.112C18.2993 20.112 20.1403 18.271 20.1403 16.0018C20.1403 13.7325 18.2993 11.8916 16.0301 11.8916ZM16.0301 18.6679C14.558 18.6679 13.3639 17.474 13.3639 16.0018C13.3639 14.5296 14.558 13.3356 16.0301 13.3356C17.5023 13.3356 18.6963 14.5296 18.6963 16.0018C18.6963 17.474 17.5023 18.6679 16.0301 18.6679Z" fill="white"/>
<path d="M21.262 11.7286C21.262 12.2585 20.8323 12.6881 20.3023 12.6881C19.7724 12.6881 19.3428 12.2585 19.3428 11.7286C19.3428 11.1986 19.7724 10.769 20.3023 10.769C20.8323 10.769 21.262 11.1986 21.262 11.7286Z" fill="white"/>
</g>
<defs>
<clipPath id="clip0_401_660">
<rect width="16" height="16" fill="white" transform="translate(8 8)"/>
</clipPath>
</defs>
</svg>
