<svg width="32" height="32" viewBox="0 0 32 32" fill="none" xmlns="http://www.w3.org/2000/svg">
<rect width="32" height="32" rx="8" fill="#0083CA"/>
<g clip-path="url(#clip0_401_665)">
<path d="M23.9958 24V23.9993H23.9998V18.1313C23.9998 15.2606 23.3818 13.0493 20.0258 13.0493C18.4125 13.0493 17.3298 13.9347 16.8878 14.774H16.8412V13.3173H13.6592V23.9993H16.9725V18.71C16.9725 17.3173 17.2365 15.9707 18.9612 15.9707C20.6605 15.9707 20.6858 17.56 20.6858 18.7993V24H23.9958Z" fill="white"/>
<path d="M8.26367 13.3179H11.581V23.9999H8.26367V13.3179Z" fill="white"/>
<path d="M9.92133 8C8.86067 8 8 8.86067 8 9.92133C8 10.982 8.86067 11.8607 9.92133 11.8607C10.982 11.8607 11.8427 10.982 11.8427 9.92133C11.842 8.86067 10.9813 8 9.92133 8V8Z" fill="white"/>
</g>
<defs>
<clipPath id="clip0_401_665">
<rect width="16" height="16" fill="white" transform="translate(8 8)"/>
</clipPath>
</defs>
</svg>
