<svg width="263" height="31" viewBox="0 0 263 31" fill="none" xmlns="http://www.w3.org/2000/svg">
<g clip-path="url(#clip0_3_31)">
<path d="M-0.142395 23.5788L5.83919 20.15C6.93107 22.6394 8.78252 24.2834 12.2006 24.2834C15.4762 24.2834 16.2832 23.0152 16.2832 21.8409C16.2832 20.0091 14.5742 19.2576 10.0168 18.0364C5.50688 16.8152 1.0919 14.6546 1.0919 8.92428C1.13937 3.19398 6.07656 -0.140869 11.2986 -0.140869C16.2832 -0.140869 20.176 2.20762 22.3598 6.62277L16.5206 10.0046C15.4762 7.84398 14.052 6.52883 11.2986 6.52883C9.11483 6.52883 8.07042 7.60913 8.07042 8.78337C8.07042 10.1455 8.78251 11.0849 13.5298 12.494C18.1347 13.8561 23.2618 15.4531 23.2618 21.794C23.2618 27.5713 18.6094 31 12.0107 31C5.6493 30.9531 1.56663 27.994 -0.142395 23.5788Z" fill="#000D42"/>
<path d="M45.9064 7.04548H38.1208V30.3894H31.2372V7.04548H23.4517V0.469727H45.9538V7.04548H45.9064Z" fill="#000D42"/>
<path d="M86.4008 20.5259H83.1251V30.3425H76.1941V0.422852H88.2997C94.0439 0.422852 98.6963 4.97891 98.6963 10.7092C98.6963 14.3729 96.465 17.7077 93.1419 19.3986L99.5982 30.3895H92.0975L86.4008 20.5259ZM83.1251 14.5607H88.2997C90.1986 14.5607 91.7652 12.8698 91.7652 10.7092C91.7652 8.54861 90.1986 6.8577 88.2997 6.8577H83.1251V14.5607Z" fill="#000D42"/>
<path d="M111.561 15.4061C111.561 6.5758 118.16 -0.140869 127.275 -0.140869C132.782 -0.140869 137.624 2.5364 140.235 6.81065L134.253 10.2394C132.924 7.93792 130.313 6.5758 127.227 6.5758C121.863 6.5758 118.397 10.1455 118.397 15.4531C118.397 20.7606 121.863 24.3303 127.227 24.3303C130.313 24.3303 132.924 22.9682 134.253 20.6667L140.235 24.0955C137.624 28.3228 132.782 31.047 127.275 31.047C118.16 31 111.561 24.2364 111.561 15.4061Z" fill="#000D42"/>
<path d="M161.218 25.6925H150.014L148.495 30.3894H140.947L151.201 0.469727H160.031L170.333 30.3894H162.785L161.218 25.6925ZM159.177 19.2576L155.616 8.2667L152.056 19.2576H159.177Z" fill="#000D42"/>
<path d="M183.103 20.5728H179.827V30.3894H172.896V0.469727H185.002C190.746 0.469727 195.399 5.02579 195.399 10.7561C195.399 14.4197 193.167 17.7546 189.844 19.4455L196.301 30.4364H188.847L183.103 20.5728ZM179.827 14.5606H185.002C186.901 14.5606 188.467 12.8697 188.467 10.7091C188.467 8.54851 186.901 6.85761 185.002 6.85761H179.827V14.5606Z" fill="#000D42"/>
<path d="M231.62 15.4061C231.62 6.5758 238.646 -0.140869 247.334 -0.140869C256.021 -0.140869 263.047 6.62277 263.047 15.4061C263.047 24.1894 256.069 31 247.334 31C238.646 31 231.62 24.2364 231.62 15.4061ZM256.164 15.4061C256.164 10.0516 252.271 6.52883 247.334 6.52883C242.397 6.52883 238.504 10.0985 238.504 15.4061C238.504 20.7137 242.397 24.2834 247.334 24.2834C252.271 24.3303 256.164 20.7606 256.164 15.4061Z" fill="#000D42"/>
<path d="M222.79 13.7621C222.79 14.1848 222.838 17.5666 221.888 19.7742C220.797 22.5924 218.186 24.3302 214.15 24.3302C208.264 24.3302 204.656 20.6196 204.656 15.4999C204.656 10.2393 208.454 6.52873 213.581 6.52873C216.999 6.52873 219.705 8.07873 220.986 10.0515L226.873 6.71661C224.31 2.72419 219.42 -0.0939941 213.628 -0.0939941C204.703 -0.0939941 197.772 6.85752 197.772 15.4999C197.772 24.0954 204.608 31.0469 214.103 31.0469C222.553 31.0469 229.009 25.5045 229.009 16.3454V13.7621H222.79Z" fill="#000D42"/>
<path d="M213.866 19.7742H221.936V19.8212C222.838 17.6136 222.838 14.2318 222.838 13.8091H213.866V19.7742Z" fill="#0056FC"/>
<path d="M67.2691 12.0243L62.142 15.6879L64.1359 21.794L58.9139 18.0364L53.6919 21.794L55.6857 15.6879L50.5112 11.9773L44.1973 30.3894H51.7455L53.2646 25.6924H64.5157L66.0348 30.3894H73.583L67.2691 12.0243Z" fill="#000D42"/>
<path d="M58.9138 5.87124L57.1098 0.469727H54.4988L50.5111 11.9303H56.92L58.9138 5.87124Z" fill="#000D42"/>
<path d="M58.9138 5.87124L60.9077 11.9303H67.2691L63.2813 0.469727H57.1099L58.9138 5.87124Z" fill="#0056FC"/>
</g>
<defs>
<clipPath id="clip0_3_31">
<rect width="263" height="31" fill="white"/>
</clipPath>
</defs>
</svg>
