<svg width="263" height="32" viewBox="0 0 263 32" fill="none" xmlns="http://www.w3.org/2000/svg">
<g clip-path="url(#clip0_3_29)">
<path d="M-0.142395 24.3393L5.83919 20.7999C6.93107 23.3696 8.78252 25.0666 12.2006 25.0666C15.4762 25.0666 16.2832 23.7575 16.2832 22.5454C16.2832 20.6545 14.5742 19.8787 10.0168 18.6181C5.50688 17.3575 1.0919 15.1272 1.0919 9.21207C1.13937 3.29692 6.07656 -0.145508 11.2986 -0.145508C16.2832 -0.145508 20.176 2.27873 22.3598 6.83631L16.5206 10.3272C15.4762 8.09692 14.052 6.73934 11.2986 6.73934C9.11483 6.73934 8.07042 7.85449 8.07042 9.06661C8.07042 10.4727 8.78251 11.4424 13.5298 12.8969C18.1347 14.303 23.2618 15.9515 23.2618 22.4969C23.2618 28.4606 18.6094 31.9999 12.0107 31.9999C5.6493 31.9515 1.56663 28.8969 -0.142395 24.3393Z" fill="white"/>
<path d="M45.9064 7.27274H38.1208V31.3697H31.2372V7.27274H23.4517V0.484863H45.9538V7.27274H45.9064Z" fill="white"/>
<path d="M86.4008 21.1878H83.1251V31.3211H76.1941V0.436279H88.2997C94.0439 0.436279 98.6963 5.13931 98.6963 11.0545C98.6963 14.8363 96.465 18.2787 93.1419 20.0242L99.5982 31.3696H92.0975L86.4008 21.1878ZM83.1251 15.0302H88.2997C90.1986 15.0302 91.7652 13.2848 91.7652 11.0545C91.7652 8.82416 90.1986 7.0787 88.2997 7.0787H83.1251V15.0302Z" fill="white"/>
<path d="M111.561 15.903C111.561 6.78783 118.16 -0.145508 127.275 -0.145508C132.782 -0.145508 137.624 2.61813 140.235 7.03025L134.253 10.5696C132.924 8.19388 130.313 6.78783 127.227 6.78783C121.863 6.78783 118.397 10.4727 118.397 15.9515C118.397 21.4303 121.863 25.1151 127.227 25.1151C130.313 25.1151 132.924 23.709 134.253 21.3333L140.235 24.8727C137.624 29.2363 132.782 32.0484 127.275 32.0484C118.16 31.9999 111.561 25.0181 111.561 15.903Z" fill="white"/>
<path d="M161.218 26.5212H150.014L148.495 31.3697H140.947L151.201 0.484863H160.031L170.333 31.3697H162.785L161.218 26.5212ZM159.177 19.8788L155.616 8.53335L152.056 19.8788H159.177Z" fill="white"/>
<path d="M183.103 21.2364H179.827V31.3697H172.896V0.484863H185.002C190.746 0.484863 195.399 5.18789 195.399 11.103C195.399 14.8849 193.167 18.3273 189.844 20.0727L196.301 31.4182H188.847L183.103 21.2364ZM179.827 15.0303H185.002C186.901 15.0303 188.467 13.2849 188.467 11.0546C188.467 8.82426 186.901 7.0788 185.002 7.0788H179.827V15.0303Z" fill="white"/>
<path d="M231.62 15.903C231.62 6.78783 238.646 -0.145508 247.334 -0.145508C256.021 -0.145508 263.047 6.83631 263.047 15.903C263.047 24.9696 256.069 31.9999 247.334 31.9999C238.646 31.9999 231.62 25.0181 231.62 15.903ZM256.164 15.903C256.164 10.3757 252.271 6.73934 247.334 6.73934C242.397 6.73934 238.504 10.4242 238.504 15.903C238.504 21.3818 242.397 25.0666 247.334 25.0666C252.271 25.1151 256.164 21.4302 256.164 15.903Z" fill="white"/>
<path d="M222.79 14.2061C222.79 14.6425 222.838 18.1334 221.888 20.4122C220.797 23.3213 218.186 25.1152 214.15 25.1152C208.264 25.1152 204.656 21.2849 204.656 16C204.656 10.5697 208.454 6.73944 213.581 6.73944C216.999 6.73944 219.705 8.33944 220.986 10.3758L226.873 6.93338C224.31 2.81217 219.42 -0.0969238 213.628 -0.0969238C204.703 -0.0969238 197.772 7.07883 197.772 16C197.772 24.8728 204.608 32.0485 214.103 32.0485C222.553 32.0485 229.009 26.3273 229.009 16.8728V14.2061H222.79Z" fill="white"/>
<path opacity="0.8" d="M213.866 20.4122H221.936V20.4607C222.838 18.1819 222.838 14.691 222.838 14.2546H213.866V20.4122Z" fill="white"/>
<path d="M67.2691 12.4123L62.142 16.1941L64.1359 22.4971L58.9139 18.6183L53.6919 22.4971L55.6857 16.1941L50.5112 12.3638L44.1973 31.3698H51.7455L53.2646 26.5213H64.5157L66.0348 31.3698H73.583L67.2691 12.4123Z" fill="white"/>
<path d="M58.9138 6.06062L57.1098 0.484863H54.4988L50.5111 12.3152H56.92L58.9138 6.06062Z" fill="white"/>
<path opacity="0.8" d="M58.9138 6.06062L60.9077 12.3152H67.2691L63.2813 0.484863H57.1099L58.9138 6.06062Z" fill="white"/>
</g>
<defs>
<clipPath id="clip0_3_29">
<rect width="263" height="32" fill="white"/>
</clipPath>
</defs>
</svg>
