<svg width="2079" height="248" xmlns="http://www.w3.org/2000/svg" xmlns:xlink="http://www.w3.org/1999/xlink" xml:space="preserve" overflow="hidden"><defs><clipPath id="clip0"><rect x="94" y="632" width="2079" height="248"/></clipPath></defs><g clip-path="url(#clip0)" transform="translate(-94 -632)"><path d="M-1.12581 188.386 46.1583 160.991C54.7895 180.881 69.4251 194.015 96.4446 194.015 122.338 194.015 128.718 183.883 128.718 174.501 128.718 159.865 115.208 153.861 79.1821 144.104 43.5314 134.347 8.63123 117.084 8.63123 71.3014 9.0065 25.5184 48.0347-1.12581 89.3144-1.12581 128.718-1.12581 159.49 17.6377 176.753 52.9132L130.594 79.9327C122.338 62.6702 111.08 52.1626 89.3144 52.1626 72.052 52.1626 63.796 60.7939 63.796 70.1756 63.796 81.0585 69.4251 88.5639 106.952 99.822 143.353 110.705 183.883 123.464 183.883 174.126 183.883 220.284 147.106 247.679 94.9435 247.679 44.6572 247.303 12.3839 223.661-1.12581 188.386Z" fill="#FFFFFF" transform="matrix(1 0 0 1.0013 94 632)"/><path d="M362.887 56.2906 301.342 56.2906 301.342 242.8 246.928 242.8 246.928 56.2906 185.384 56.2906 185.384 3.75271 363.262 3.75271 363.262 56.2906Z" fill="#FFFFFF" transform="matrix(1 0 0 1.0013 94 632)"/><path d="M682.993 163.993 657.099 163.993 657.099 242.425 602.31 242.425 602.31 3.37744 698.004 3.37744C743.411 3.37744 780.188 39.7787 780.188 85.5617 780.188 114.833 762.55 141.477 736.281 154.987L787.318 242.8 728.025 242.8 682.993 163.993ZM657.099 116.334 698.004 116.334C713.014 116.334 725.398 102.824 725.398 85.5617 725.398 68.2993 713.014 54.7895 698.004 54.7895L657.099 54.7895 657.099 116.334Z" fill="#FFFFFF" transform="matrix(1 0 0 1.0013 94 632)"/><path d="M881.886 123.089C881.886 52.5379 934.049-1.12581 1006.1-1.12581 1049.63-1.12581 1087.91 20.2646 1108.55 54.4143L1061.27 81.809C1050.76 63.4208 1030.12 52.5379 1005.73 52.5379 963.32 52.5379 935.925 81.0585 935.925 123.464 935.925 165.87 963.32 194.39 1005.73 194.39 1030.12 194.39 1050.76 183.507 1061.27 165.119L1108.55 192.514C1087.91 226.288 1049.63 248.054 1006.1 248.054 934.049 247.679 881.886 193.64 881.886 123.089Z" fill="#FFFFFF" transform="matrix(1 0 0 1.0013 94 632)"/><path d="M1274.42 205.273 1185.86 205.273 1173.85 242.8 1114.18 242.8 1195.24 3.75271 1265.04 3.75271 1346.47 242.8 1286.8 242.8 1274.42 205.273ZM1258.28 153.861 1230.14 66.0477 1201.99 153.861 1258.28 153.861Z" fill="#FFFFFF" transform="matrix(1 0 0 1.0013 94 632)"/><path d="M1447.42 164.369 1421.53 164.369 1421.53 242.8 1366.74 242.8 1366.74 3.75271 1462.43 3.75271C1507.84 3.75271 1544.61 40.154 1544.61 85.937 1544.61 115.208 1526.98 141.852 1500.71 155.362L1551.74 243.175 1492.83 243.175 1447.42 164.369ZM1421.53 116.334 1462.43 116.334C1477.44 116.334 1489.82 102.824 1489.82 85.5617 1489.82 68.2993 1477.44 54.7895 1462.43 54.7895L1421.53 54.7895 1421.53 116.334Z" fill="#FFFFFF" transform="matrix(1 0 0 1.0013 94 632)"/><path d="M1830.95 123.089C1830.95 52.5379 1886.49-1.12581 1955.16-1.12581 2023.84-1.12581 2079.38 52.9132 2079.38 123.089 2079.38 193.264 2024.21 247.679 1955.16 247.679 1886.49 247.679 1830.95 193.64 1830.95 123.089ZM2024.96 123.089C2024.96 80.3079 1994.19 52.1626 1955.16 52.1626 1916.13 52.1626 1885.36 80.6832 1885.36 123.089 1885.36 165.494 1916.13 194.015 1955.16 194.015 1994.19 194.39 2024.96 165.87 2024.96 123.089Z" fill="#FFFFFF" transform="matrix(1 0 0 1.0013 94 632)"/><path d="M1761.15 109.954C1761.15 113.332 1761.52 140.351 1754.02 157.989L1754.02 157.989C1745.38 180.505 1724.74 194.39 1692.85 194.39 1646.31 194.39 1617.79 164.744 1617.79 123.839 1617.79 81.809 1647.81 52.1626 1688.34 52.1626 1715.36 52.1626 1736.75 64.5466 1746.89 80.3079L1793.42 53.6637C1773.15 21.7657 1734.5-0.750542 1688.72-0.750542 1618.17-0.750542 1563.38 54.7895 1563.38 123.839 1563.38 192.514 1617.42 248.054 1692.47 248.054 1759.27 248.054 1810.31 203.772 1810.31 130.594L1810.31 109.954 1761.15 109.954Z" fill="#FFFFFF" transform="matrix(1 0 0 1.0013 94 632)"/><path d="M1690.59 157.989 1754.39 157.989C1754.39 157.989 1754.39 158.364 1754.39 158.364L1754.39 158.364C1761.52 140.727 1761.52 113.707 1761.52 110.33L1690.59 110.33 1690.59 157.989Z" fill="#0056FC" transform="matrix(1 0 0 1.0013 94 632)"/><path d="M531.759 96.0693 491.229 125.34 506.991 174.126 465.711 144.104 424.431 174.126 440.193 125.34 399.288 95.694 349.377 242.8 409.045 242.8 421.054 205.273 509.993 205.273 522.002 242.8 581.67 242.8Z" fill="#FFFFFF" transform="matrix(1 0 0 1.0013 94 632)"/><path d="M465.711 46.9088 451.451 3.75271 430.811 3.75271 399.288 95.3188 449.95 95.3188Z" fill="#FFFFFF" transform="matrix(1 0 0 1.0013 94 632)"/><path d="M465.711 46.9088 481.472 95.3188 531.759 95.3188 500.236 3.75271 451.451 3.75271 465.711 46.9088Z" fill="#0056FC" transform="matrix(1 0 0 1.0013 94 632)"/></g></svg>