<svg width="49" height="32" viewBox="0 0 49 32" fill="none" xmlns="http://www.w3.org/2000/svg">
<g clip-path="url(#clip0_211_1857)">
<path d="M48.1741 0.0158691H0V31.984H48.1741V0.0158691Z" fill="#003976"/>
<path d="M48.1741 10.6719H0V21.3279H48.1741V10.6719Z" fill="white"/>
<path d="M27.5838 17.8736L24.2538 12.1948L20.9238 17.8736H27.5838Z" fill="#003976"/>
<path d="M21.0303 17.8046L24.2537 12.3301L27.4772 17.8046H21.0303Z" fill="#FFCF46"/>
<path d="M21.1396 17.7381L24.2543 12.4656L27.369 17.7381H21.1396Z" fill="#003976"/>
<path d="M27.2623 17.6693L24.2542 12.6011L21.2461 17.6693H27.2623Z" fill="white"/>
<path d="M24.0669 15.3915C24.0535 15.3915 24.0424 15.3915 24.0269 15.3915C24.0114 15.3915 24.018 15.3848 24.018 15.3538C24.018 15.2339 24.0247 15.1318 24.0669 15.0896C24.109 15.0496 24.1623 15.043 24.2001 15.043C24.2378 15.043 24.2533 15.0052 24.2089 14.9919C24.1645 14.9786 24.1357 14.9697 24.0824 14.9764C24.0824 14.9031 24.1068 14.8298 24.1912 14.8298C24.2356 14.8298 24.2644 14.8343 24.3333 14.8343C24.4021 14.8343 24.4864 14.9386 24.4864 15.0496C24.4864 15.1873 24.482 15.3182 24.482 15.3604C24.482 15.4026 24.4576 15.4137 24.4198 15.4137C24.3821 15.4137 24.351 15.4137 24.3266 15.4137C24.3022 15.4137 24.2866 15.4115 24.2866 15.4537C24.2866 15.4958 24.28 15.5402 24.28 15.5802C24.28 15.6202 24.2467 15.6446 24.1912 15.6157C24.1357 15.5869 24.1068 15.5425 24.0691 15.3959L24.0669 15.3915Z" fill="#EF3E42"/>
<path d="M19.7163 15.1498L19.6719 15.454L19.8095 15.4739L19.8495 15.2009L19.9627 15.2164L19.9228 15.4917L20.0848 15.5161L20.1314 15.212L20.2313 15.2275L20.167 15.656L19.5498 15.5627L19.6142 15.1343L19.7163 15.1498Z" fill="#FFCF46"/>
<path d="M19.8894 14.7922L19.996 14.8255L20.0315 14.7122C20.0493 14.6567 20.016 14.6057 19.9583 14.5879C19.9005 14.5702 19.8584 14.6057 19.8428 14.6523C19.8273 14.6989 19.8073 14.7655 19.8073 14.7655C19.8073 14.7655 19.845 14.7766 19.8872 14.7899L19.8584 14.9009L19.6719 14.8432C19.6719 14.8432 19.7052 14.7367 19.7496 14.5946C19.7807 14.4947 19.8828 14.4481 19.9893 14.4814C20.0848 14.5102 20.1647 14.6079 20.1314 14.7145C20.1114 14.7788 20.087 14.8543 20.087 14.8543L20.3024 14.9209L20.2691 15.0297L19.8606 14.9009L19.8894 14.7899V14.7922Z" fill="#FFCF46"/>
<path d="M20.4709 14.1905C20.5087 14.1128 20.4687 14.0684 20.4199 14.044L20.0491 13.862L20.1024 13.7532L20.4709 13.9352C20.562 13.9796 20.6397 14.0773 20.562 14.2349C20.4843 14.3925 20.3599 14.3903 20.2689 14.3459C20.1957 14.3104 19.9004 14.1639 19.9004 14.1639L19.9537 14.0551C19.9537 14.0551 20.2756 14.2149 20.3244 14.2371C20.371 14.2616 20.4332 14.2638 20.4709 14.1883V14.1905Z" fill="#FFCF46"/>
<path d="M20.6708 13.6377L20.7419 13.6887C20.7419 13.6887 20.8129 13.5888 20.8373 13.5555C20.8617 13.5222 20.8506 13.4823 20.8085 13.4512C20.7663 13.4223 20.7263 13.4245 20.7019 13.4601C20.6775 13.4934 20.6064 13.5933 20.6064 13.5933C20.6064 13.5933 20.6375 13.6155 20.6686 13.6377L20.5953 13.7376C20.5287 13.6887 20.4533 13.6354 20.3889 13.5888L20.4621 13.4889L20.5199 13.5311C20.5199 13.5311 20.5754 13.4534 20.6087 13.4068C20.642 13.3602 20.6087 13.3202 20.5953 13.3113C20.5731 13.2958 20.5243 13.2891 20.4977 13.3269C20.471 13.3646 20.4089 13.4512 20.4089 13.4512C20.4089 13.4512 20.4355 13.4712 20.4621 13.4889L20.3889 13.5888C20.309 13.5311 20.249 13.4889 20.249 13.4889C20.249 13.4889 20.289 13.4334 20.3889 13.2936C20.4577 13.1981 20.562 13.1426 20.6486 13.2048C20.6864 13.2314 20.7152 13.2802 20.7197 13.3335C20.7707 13.3202 20.8196 13.3202 20.8817 13.3646C20.9439 13.409 21.0083 13.5045 20.9172 13.631C20.8551 13.7176 20.7574 13.853 20.7574 13.853C20.7574 13.853 20.6864 13.8019 20.5953 13.7376L20.6686 13.6377H20.6708Z" fill="#FFCF46"/>
<path d="M20.8102 12.7764L21.1765 13.1338L21.3697 12.9362L21.4518 13.0161L21.1699 13.3025L20.7236 12.8652L20.8102 12.7764Z" fill="#FFCF46"/>
<path d="M21.2908 12.3334L21.1943 12.4119L21.588 12.8958L21.6845 12.8173L21.2908 12.3334Z" fill="#FFCF46"/>
<path d="M21.961 12.126C21.9411 12.0927 21.8789 12.0527 21.7968 12.1038C21.7146 12.1548 21.7191 12.2481 21.7857 12.3524C21.85 12.4545 21.9455 12.4967 22.0143 12.4523C22.0854 12.4079 22.0876 12.3302 22.0609 12.288L22.152 12.2303C22.2208 12.3413 22.183 12.4701 22.0609 12.5455C21.9388 12.621 21.7879 12.57 21.688 12.4101C21.5881 12.2503 21.6058 12.0927 21.7368 12.0105C21.8678 11.9284 21.9988 11.9861 22.0498 12.0682L21.9588 12.126H21.961Z" fill="#FFCF46"/>
<path d="M23.5745 11.6286C23.5856 11.733 23.5989 11.8395 23.5989 11.8418C23.5989 11.8418 23.6589 11.8351 23.6966 11.8307C23.7344 11.8262 23.8431 11.7974 23.8209 11.5998C23.801 11.42 23.6944 11.4177 23.6544 11.4222C23.6345 11.4244 23.5523 11.4333 23.5523 11.4333C23.5523 11.4333 23.5634 11.5287 23.5745 11.6286L23.4591 11.6442C23.4413 11.491 23.4258 11.3423 23.4258 11.3423C23.4879 11.3356 23.5812 11.3245 23.6567 11.3156C23.7321 11.3067 23.9031 11.309 23.9342 11.5798C23.9541 11.7463 23.8898 11.9172 23.7477 11.935C23.6056 11.9505 23.4946 11.9639 23.4946 11.9639C23.4946 11.9639 23.4768 11.8018 23.4591 11.6442L23.5745 11.6286Z" fill="#FFCF46"/>
<path d="M24.6666 11.3956L24.358 11.3822L24.3513 11.5199L24.6288 11.5332L24.6222 11.6486L24.3447 11.6353L24.338 11.7996L24.6466 11.8151L24.6399 11.915L24.207 11.8951L24.2359 11.2712L24.671 11.2912L24.6666 11.3956Z" fill="#FFCF46"/>
<path d="M25.5699 11.4577L25.6676 11.8839L25.7831 11.5243L25.9007 11.562L25.7098 12.157L25.5966 12.1215L25.4878 11.6686L25.3679 12.0482L25.248 12.0105L25.439 11.4155L25.5699 11.4577Z" fill="#FFCF46"/>
<path d="M26.1719 11.6761L25.9072 12.241L26.0198 12.2937L26.2845 11.7289L26.1719 11.6761Z" fill="#FFCF46"/>
<path d="M26.765 12.2415C26.785 12.2082 26.7961 12.1349 26.714 12.0839C26.6318 12.0328 26.5519 12.0772 26.4853 12.1815C26.4209 12.2837 26.4254 12.388 26.4942 12.4324C26.5653 12.4768 26.6363 12.4457 26.6629 12.4035L26.754 12.4613C26.6851 12.57 26.5519 12.5922 26.4298 12.5168C26.3077 12.4391 26.29 12.2814 26.3899 12.1216C26.4898 11.9618 26.6407 11.9107 26.7695 11.9928C26.9005 12.075 26.9071 12.2171 26.8539 12.2992L26.7628 12.2415H26.765Z" fill="#FFCF46"/>
<path d="M28.589 14.6279C28.6401 14.5835 28.6601 14.528 28.6401 14.4681C28.609 14.3793 28.5113 14.3504 28.3937 14.3904C28.276 14.4303 28.2139 14.5169 28.2449 14.6057C28.2716 14.6812 28.336 14.7145 28.4137 14.6923L28.3737 14.5769L28.4669 14.5458L28.5402 14.7589L28.2405 14.861L28.2161 14.7922C28.2361 14.7855 28.2627 14.7722 28.2782 14.7589C28.2161 14.7434 28.1695 14.699 28.145 14.6346C28.0918 14.5014 28.1828 14.3393 28.3582 14.2794C28.5335 14.2194 28.6823 14.2772 28.7356 14.4303C28.7777 14.5524 28.7311 14.679 28.6223 14.7167L28.589 14.6213V14.6279Z" fill="#FFCF46"/>
<path d="M28.4188 15.283C28.4321 15.3673 28.4921 15.3806 28.5431 15.3718C28.5942 15.3629 28.9494 15.3052 28.9494 15.3052L28.9694 15.4228C28.9694 15.4228 28.6452 15.4761 28.5631 15.4894C28.4632 15.505 28.3433 15.4717 28.3145 15.2985C28.2856 15.1253 28.3899 15.0543 28.4876 15.0388C28.5675 15.0254 28.8939 14.9722 28.8939 14.9722L28.9139 15.092C28.9139 15.092 28.5587 15.1498 28.5076 15.1586C28.4543 15.1675 28.4033 15.1986 28.4166 15.283H28.4188Z" fill="#FFCF46"/>
<path d="M20.3958 18.342L20.4402 18.4153L20.6155 18.2155L20.358 18.2821C20.358 18.2821 20.378 18.3109 20.3958 18.3442L20.3047 18.3953C20.2781 18.3509 20.2515 18.3109 20.2515 18.3109L20.1227 18.3442L20.0605 18.2443L20.6955 18.0845L20.7687 18.2021L20.3425 18.6994L20.2803 18.5995L20.3691 18.4996C20.3691 18.4996 20.3358 18.4441 20.3047 18.3953L20.3958 18.3442V18.342Z" fill="#FFCF46"/>
<path d="M20.6522 19.0946L20.9319 18.6906L20.5789 19.0103L20.499 18.9259L20.963 18.5063L21.0851 18.6395L20.8009 19.0391L21.2272 18.7972L21.3493 18.9304L20.8853 19.3499L20.8076 19.2656L21.1606 18.9459L20.7321 19.1812L20.6522 19.0946Z" fill="#FFCF46"/>
<path d="M21.7985 19.4455L21.5566 19.2546L21.47 19.3656L21.6875 19.5365L21.6187 19.6253L21.3989 19.4566L21.2968 19.5853L21.541 19.7763L21.4789 19.8562L21.1348 19.5876L21.521 19.0947L21.8629 19.3633L21.7985 19.4455Z" fill="#FFCF46"/>
<path d="M22.027 19.7895C22.0625 19.8094 22.1136 19.8383 22.1335 19.8494C22.1668 19.8672 22.2112 19.8538 22.2379 19.8094C22.2623 19.765 22.2468 19.7206 22.2068 19.6984C22.1668 19.6762 22.0692 19.6207 22.0692 19.6207L21.987 19.765C21.987 19.765 22.0048 19.7739 22.027 19.7872L21.9826 19.8894C21.9537 19.8738 21.9315 19.8605 21.9315 19.8605L21.8139 20.0714L21.7051 20.0115L22.0092 19.4653C22.0092 19.4653 22.2312 19.5897 22.3067 19.6318C22.3822 19.674 22.3822 19.7761 22.34 19.8538C22.2956 19.9315 22.2068 19.9493 22.1779 19.9338C22.2157 19.9537 22.2334 20.0181 22.1957 20.0847C22.1757 20.118 22.1113 20.2379 22.1113 20.2379L22.007 20.1802C22.007 20.1802 22.0403 20.118 22.078 20.0514C22.1158 19.9848 22.0936 19.9515 22.0403 19.9204C22.0203 19.9093 22.0003 19.8982 21.9826 19.8894L22.027 19.7872V19.7895Z" fill="#FFCF46"/>
<path d="M22.5895 19.7774L22.3525 20.3545L22.4675 20.4017L22.7045 19.8246L22.5895 19.7774Z" fill="#FFCF46"/>
<path d="M23.2102 20.2157C23.2213 20.178 23.2102 20.1047 23.1148 20.0803C23.0215 20.0537 22.9571 20.1203 22.9238 20.2401C22.8905 20.3578 22.9238 20.4555 23.006 20.4755C23.0859 20.4977 23.1458 20.4466 23.1592 20.4L23.2635 20.4288C23.2302 20.5532 23.1081 20.6131 22.9705 20.5754C22.8306 20.5376 22.7684 20.3911 22.8173 20.2091C22.8661 20.027 22.9971 19.9338 23.1436 19.9737C23.2924 20.0137 23.339 20.1491 23.3146 20.2424L23.2102 20.2135V20.2157Z" fill="#FFCF46"/>
<path d="M25.0413 20.2734C25.0346 20.2356 24.9946 20.1735 24.8992 20.189C24.8037 20.2046 24.7726 20.2911 24.7904 20.4132C24.8082 20.5331 24.8792 20.6086 24.9613 20.5953C25.0435 20.582 25.0768 20.5109 25.0701 20.4643L25.1767 20.4465C25.1967 20.5753 25.1123 20.6796 24.9702 20.7018C24.8281 20.724 24.7105 20.6153 24.6816 20.431C24.6528 20.2445 24.7327 20.1069 24.8836 20.0825C25.0346 20.058 25.1345 20.1624 25.15 20.2578L25.0435 20.2756L25.0413 20.2734Z" fill="#FFCF46"/>
<path d="M25.7187 19.9781L25.4256 20.0713L25.4678 20.2045L25.732 20.1202L25.7653 20.2289L25.5011 20.3133L25.5522 20.4709L25.8452 20.3755L25.8763 20.4731L25.4634 20.6063L25.2725 20.0114L25.6854 19.8782L25.7187 19.9781Z" fill="#FFCF46"/>
<path d="M25.9827 19.756L26.349 19.9913L26.1803 19.6539L26.2913 19.5984L26.5732 20.1556L26.4667 20.2111L26.0715 19.9647L26.2513 20.3199L26.1403 20.3754L25.8584 19.8182L25.9827 19.756Z" fill="#FFCF46"/>
<path d="M26.973 19.9027L26.6667 19.4831L26.5202 19.5897L26.458 19.5053L26.8443 19.2234L26.9064 19.31L26.7577 19.4165L27.0641 19.8361L26.973 19.9027Z" fill="#FFCF46"/>
<path d="M27.8898 17.9667L28.3449 18.1998L28.4692 17.9512L28.5713 18.0022L28.3893 18.3619L27.832 18.0777L27.8898 17.9667Z" fill="#FFCF46"/>
<path d="M23.7451 20.4931C23.7851 20.4975 23.8295 20.502 23.8295 20.502L23.7784 20.2422L23.6741 20.4864C23.6741 20.4864 23.7096 20.4887 23.7451 20.4931L23.7296 20.5952C23.6785 20.5908 23.6297 20.5841 23.6297 20.5841L23.5764 20.7062L23.4609 20.6951L23.7207 20.0935L23.8583 20.1068L23.9915 20.7484L23.8761 20.7373L23.8517 20.6063C23.8517 20.6063 23.7873 20.5997 23.7296 20.593L23.7451 20.4909V20.4931Z" fill="#FFCF46"/>
<path d="M27.9031 18.6751C27.9275 18.6418 27.9519 18.6063 27.9519 18.6063L27.701 18.5219L27.8609 18.735C27.8609 18.735 27.8809 18.7062 27.9031 18.6751L27.9852 18.7395C27.9541 18.7817 27.9275 18.8216 27.9275 18.8216L28.0074 18.9282L27.9386 19.0236L27.5479 18.4975L27.6278 18.3843L28.2516 18.5885L28.1828 18.684L28.0562 18.6418C28.0562 18.6418 28.0185 18.6929 27.9852 18.7417L27.9031 18.6773V18.6751Z" fill="#FFCF46"/>
<path d="M27.2932 19.1878C27.3221 19.1589 27.362 19.1189 27.3798 19.1012C27.4064 19.0745 27.4064 19.0279 27.3709 18.9902C27.3354 18.9547 27.2888 18.9591 27.2555 18.9902C27.2244 19.0213 27.1445 19.1012 27.1445 19.1012L27.2621 19.2188C27.2621 19.2188 27.2755 19.2055 27.2954 19.1855L27.382 19.2566L27.3421 19.2965L27.513 19.4675L27.4242 19.5563L26.9824 19.1145C26.9824 19.1145 27.1622 18.9347 27.2244 18.8725C27.2843 18.8126 27.3842 18.8392 27.4486 18.9014C27.513 18.9658 27.5041 19.0546 27.4819 19.079C27.513 19.0479 27.5774 19.0479 27.6307 19.1034C27.6573 19.13 27.755 19.2277 27.755 19.2277L27.6706 19.3121C27.6706 19.3121 27.6218 19.2632 27.5663 19.2077C27.513 19.1545 27.473 19.1656 27.4309 19.2077C27.4153 19.2233 27.3976 19.241 27.3842 19.2544L27.2977 19.1833L27.2932 19.1878Z" fill="#FFCF46"/>
<path d="M28.612 15.9866C28.612 16.0288 28.612 16.0709 28.612 16.0709L28.8651 15.9932L28.612 15.9133C28.612 15.9133 28.612 15.9488 28.612 15.9866L28.5077 15.9821C28.5077 15.9311 28.5077 15.8822 28.5077 15.8822L28.3811 15.8423V15.7246L29.0049 15.9244V16.062L28.3789 16.2574V16.1397L28.5077 16.102V15.9777L28.612 15.9821V15.9866Z" fill="#FFCF46"/>
<path d="M28.0476 13.8709C28.0676 13.9065 28.0875 13.9442 28.0875 13.9442L28.2718 13.7533L28.0121 13.8066C28.0121 13.8066 28.0298 13.8376 28.0476 13.8687L27.9543 13.9153C27.9299 13.8709 27.9055 13.8288 27.9055 13.8288L27.7745 13.8554L27.7168 13.7533L28.3584 13.6245L28.425 13.7444L27.9743 14.2217L27.9166 14.1196L28.0098 14.0241C28.0098 14.0241 27.9788 13.9686 27.9499 13.9153L28.0431 13.8687L28.0476 13.8709Z" fill="#FFCF46"/>
<path d="M27.131 12.7476C27.1621 12.7742 27.1932 12.8053 27.1932 12.8053L27.3042 12.5633L27.0755 12.6987C27.0755 12.6987 27.1022 12.7232 27.1288 12.7476L27.0556 12.8208C27.0178 12.7853 26.9823 12.7542 26.9823 12.7542L26.8669 12.8231L26.7803 12.7454L27.3442 12.4124L27.4463 12.5056L27.1777 13.1028L27.0911 13.0251L27.1466 12.9052C27.1466 12.9052 27.0977 12.863 27.0556 12.8231L27.1288 12.7498L27.131 12.7476Z" fill="#FFCF46"/>
<path d="M22.5752 12.0128C22.6129 11.9973 22.6529 11.9817 22.6529 11.9817L22.4841 11.7775L22.5086 12.0417C22.5086 12.0417 22.5419 12.0284 22.5752 12.0128L22.6107 12.1105C22.5618 12.1305 22.5174 12.1482 22.5174 12.1482L22.5285 12.2814L22.4198 12.3258L22.3643 11.6732L22.493 11.6199L22.9148 12.1216L22.806 12.166L22.7217 12.0639C22.7217 12.0639 22.6617 12.0883 22.6085 12.1105L22.5729 12.0128H22.5752Z" fill="#FFCF46"/>
<path d="M19.807 16.1486C19.807 16.1087 19.807 16.0509 19.807 16.0265C19.807 15.9888 19.7737 15.9555 19.7204 15.9555C19.6693 15.9555 19.6383 15.991 19.6405 16.0376C19.6405 16.082 19.6405 16.1952 19.6405 16.1952H19.807C19.807 16.1952 19.807 16.1753 19.807 16.1486L19.918 16.1375C19.918 16.1708 19.918 16.1952 19.918 16.1952H20.16V16.3196H19.5361C19.5361 16.3196 19.5361 16.0687 19.5361 15.9821C19.5361 15.8955 19.6249 15.8445 19.7137 15.8445C19.8025 15.8445 19.8625 15.9133 19.8625 15.9466C19.8625 15.9044 19.9091 15.8578 19.9846 15.8578C20.0245 15.8578 20.16 15.8578 20.16 15.8578V15.9777C20.16 15.9777 20.0911 15.9777 20.0134 15.9777C19.938 15.9777 19.918 16.0132 19.918 16.0754V16.1397L19.807 16.1508V16.1486Z" fill="#FFCF46"/>
<path d="M27.6921 13.1472C27.7188 13.1783 27.7543 13.2249 27.7676 13.2426C27.792 13.2737 27.8386 13.2782 27.8786 13.2449C27.9186 13.2138 27.9186 13.1649 27.8919 13.1294C27.8631 13.0939 27.7942 13.0051 27.7942 13.0051L27.6655 13.1094L27.6943 13.145L27.6144 13.2227C27.5944 13.196 27.5789 13.1783 27.5789 13.1783L27.3902 13.3292L27.3125 13.2315L27.8009 12.8408C27.8009 12.8408 27.9607 13.0384 28.014 13.1072C28.0673 13.1738 28.0296 13.2693 27.9607 13.3248C27.8897 13.3803 27.8009 13.3647 27.7809 13.3381C27.8076 13.3714 27.8009 13.4358 27.741 13.4846C27.7099 13.509 27.6033 13.5934 27.6033 13.5934L27.5278 13.5002C27.5278 13.5002 27.5833 13.4558 27.6433 13.4091C27.7032 13.3625 27.6966 13.3226 27.6566 13.2737C27.6433 13.256 27.6277 13.2382 27.6166 13.2227L27.6966 13.145L27.6921 13.1472Z" fill="#FFCF46"/>
<path d="M20.0111 17.2851C20.0711 17.2851 20.1177 17.2363 20.1177 17.1786C20.1177 17.1209 20.0688 17.072 20.0111 17.072C19.9534 17.072 19.9023 17.1209 19.9023 17.1786C19.9023 17.2363 19.9512 17.2851 20.0111 17.2851Z" fill="#FFCF46"/>
<path d="M28.4962 17.2851C28.4363 17.2851 28.3896 17.2363 28.3896 17.1786C28.3896 17.1209 28.4385 17.072 28.4962 17.072C28.5539 17.072 28.6028 17.1209 28.6028 17.1786C28.6028 17.2363 28.5539 17.2851 28.4962 17.2851Z" fill="#FFCF46"/>
<path d="M22.9043 14.8743L22.7822 15.0785L23.7501 15.2694C23.7501 15.2494 23.7479 15.2272 23.7457 15.205L22.9021 14.8743H22.9043Z" fill="#B3D2EF"/>
<path d="M23.2174 14.3481L23.1152 14.5213L23.8256 14.8476C23.8323 14.8321 23.8412 14.8166 23.8501 14.801L23.2174 14.3481Z" fill="#B3D2EF"/>
<path d="M23.0726 14.5923L22.9727 14.761L23.7585 15.0651C23.763 15.0429 23.7652 15.023 23.7719 15.003L23.0748 14.5945L23.0726 14.5923Z" fill="#B3D2EF"/>
<path d="M24.6602 15.578L25.7679 16.3572C25.8723 16.3528 26.1609 16.3395 26.2186 16.3372L24.6912 15.5181C24.6824 15.538 24.6713 15.558 24.6602 15.578Z" fill="#B3D2EF"/>
<path d="M24.2073 15.8376L24.1562 16.3727C24.1873 16.3727 24.245 16.3727 24.2561 16.3727V15.8421C24.2406 15.8421 24.2251 15.8421 24.2095 15.8399L24.2073 15.8376Z" fill="#B3D2EF"/>
<path d="M24.2823 14.5458L24.4132 12.8719L24.2534 12.6033L24.1846 12.7187L24.2423 14.5458C24.2423 14.5458 24.249 14.5458 24.2534 14.5458C24.2623 14.5458 24.2734 14.5458 24.2823 14.5458Z" fill="#B3D2EF"/>
<path d="M26.3333 16.1086L26.0802 15.6824L24.7327 15.396C24.726 15.4249 24.7172 15.4515 24.7061 15.4781L26.3333 16.1086Z" fill="#B3D2EF"/>
<path d="M25.8961 15.3695L25.7495 15.123L24.7572 15.2673C24.755 15.294 24.7505 15.3228 24.7461 15.3495L25.8983 15.3717L25.8961 15.3695Z" fill="#B3D2EF"/>
<path d="M25.6727 14.9897L25.5617 14.8032L24.7559 15.1007C24.7581 15.1251 24.7603 15.1518 24.7603 15.1784L25.6727 14.9897Z" fill="#B3D2EF"/>
<path d="M25.4594 14.6322L25.3817 14.5034L24.7246 14.9563C24.7313 14.9763 24.7357 14.9985 24.7424 15.0207L25.4594 14.6322Z" fill="#B3D2EF"/>
<path d="M25.313 14.386L25.2153 14.2217L24.667 14.8189C24.6781 14.8388 24.687 14.8588 24.6981 14.881L25.313 14.3837V14.386Z" fill="#B3D2EF"/>
<path d="M25.1778 14.1571L25.1134 14.0483L24.6006 14.7188C24.6117 14.7343 24.625 14.7499 24.6361 14.7654L25.18 14.1571H25.1778Z" fill="#B3D2EF"/>
<path d="M25.0574 13.953L24.993 13.8442L24.5068 14.6301C24.5202 14.6412 24.5335 14.6523 24.5468 14.6634L25.0574 13.9552V13.953Z" fill="#B3D2EF"/>
<path d="M24.9084 13.7064L24.8174 13.551L24.4355 14.5878C24.4511 14.5944 24.4644 14.6033 24.4799 14.6122L24.9084 13.7064Z" fill="#B3D2EF"/>
<path d="M24.7018 13.3557L24.5775 13.1448L24.3311 14.55C24.3444 14.5523 24.3577 14.5567 24.371 14.5611L24.7018 13.3557Z" fill="#B3D2EF"/>
<path d="M24.0189 12.9985L23.8857 13.2205L24.1566 14.557C24.1699 14.5548 24.1832 14.5503 24.1965 14.5481L24.0189 12.9985Z" fill="#B3D2EF"/>
<path d="M23.7715 13.4111L23.6738 13.5754L24.069 14.5877C24.069 14.5877 24.089 14.5789 24.0978 14.5744L23.7715 13.4111Z" fill="#B3D2EF"/>
<path d="M23.5836 13.731L23.5059 13.8597L24.0031 14.6278C24.0031 14.6278 24.0209 14.6145 24.0298 14.6101L23.5836 13.731Z" fill="#B3D2EF"/>
<path d="M23.4237 13.9998L23.2949 14.2173L23.9143 14.7124C23.9232 14.7013 23.9343 14.6902 23.9432 14.6813L23.4237 14.002V13.9998Z" fill="#B3D2EF"/>
<path d="M22.5862 15.3804L22.4219 15.6779L23.7783 15.4182C23.7739 15.4026 23.7694 15.3893 23.7672 15.3738L22.5862 15.3827V15.3804Z" fill="#B3D2EF"/>
<path d="M22.2048 16.0532L22.0205 16.364L23.8121 15.5048C23.8054 15.4915 23.801 15.4782 23.7943 15.4626L22.2048 16.0509V16.0532Z" fill="#B3D2EF"/>
<path d="M22.9482 16.1419L23.0259 16.264L23.8562 15.5914C23.8562 15.5914 23.8451 15.5714 23.8385 15.5625L22.9505 16.1441L22.9482 16.1419Z" fill="#B3D2EF"/>
<path d="M23.0947 16.3749V16.3794C23.168 16.3794 23.2679 16.3794 23.2856 16.3794L23.9161 15.6756C23.9161 15.6756 23.9006 15.6556 23.8917 15.6445L23.0947 16.3727V16.3749Z" fill="#B3D2EF"/>
<path d="M23.6924 16.1062C23.7434 16.1018 23.8211 16.0907 23.8411 16.0885L24.0032 15.7555C23.9899 15.7444 23.9743 15.7333 23.961 15.7222L23.6924 16.1062Z" fill="#B3D2EF"/>
<path d="M23.9277 16.1553C23.9477 16.1997 23.9943 16.2907 24.001 16.3018L24.1231 15.8178C24.1076 15.8112 24.0898 15.8045 24.0743 15.7979L23.9277 16.1553Z" fill="#B3D2EF"/>
<path d="M24.3779 16.3683C24.4223 16.3683 24.4933 16.3683 24.5199 16.3683L24.3623 15.8267C24.3468 15.8311 24.3312 15.8355 24.3135 15.8378L24.3779 16.3706V16.3683Z" fill="#B3D2EF"/>
<path d="M24.6646 16.3662C24.6957 16.3662 24.7911 16.3662 24.8444 16.3662L24.4492 15.7913C24.4337 15.8001 24.4159 15.8068 24.4004 15.8135L24.6668 16.3662H24.6646Z" fill="#B3D2EF"/>
<path d="M24.9535 16.3659C25.0179 16.3659 25.1577 16.3659 25.1977 16.3659L24.5384 15.7266C24.5384 15.7266 24.5206 15.7421 24.5117 15.7488L24.9513 16.3659H24.9535Z" fill="#B3D2EF"/>
<path d="M25.2971 16.3661C25.3726 16.3661 25.5214 16.3661 25.5635 16.3639L24.6245 15.6335C24.6112 15.6535 24.5956 15.6713 24.5801 15.689L25.2971 16.3684V16.3661Z" fill="#B3D2EF"/>
<path d="M26.1074 15.7246C26.1341 15.8534 26.1496 15.9866 26.1496 16.122C26.1496 16.2041 26.1452 16.284 26.1341 16.3618H26.1718C26.1807 16.2818 26.1873 16.2019 26.1873 16.122C26.1873 16.0199 26.1785 15.9178 26.1629 15.8201L26.1074 15.7246Z" fill="#4E2F91"/>
<path d="M25.4354 14.5903C25.1091 14.3372 24.6984 14.1885 24.2544 14.1885C23.8104 14.1885 23.3997 14.3394 23.0733 14.5903L23.0156 14.6858C23.3486 14.3994 23.7793 14.2262 24.2522 14.2262C24.725 14.2262 25.1579 14.3994 25.4887 14.6858L25.431 14.5903H25.4354Z" fill="#4E2F91"/>
<path d="M22.4002 15.7246L22.3447 15.8201C22.3292 15.9178 22.3203 16.0199 22.3203 16.122C22.3203 16.2152 22.327 16.3085 22.3403 16.3973H22.378C22.3647 16.3085 22.3581 16.2152 22.3581 16.122C22.3581 15.9866 22.3714 15.8534 22.4002 15.7246Z" fill="#4E2F91"/>
<path d="M26.1634 15.8201C26.1789 15.9177 26.1878 16.0199 26.1878 16.122C26.1878 16.2019 26.1833 16.2818 26.1722 16.3617H26.21C26.2188 16.284 26.2233 16.2041 26.2233 16.122C26.2233 16.0487 26.2189 15.9755 26.2122 15.9044L26.1611 15.8201H26.1634Z" fill="#003976"/>
<path d="M25.384 14.5059C25.0643 14.2816 24.6736 14.1484 24.254 14.1484C23.8344 14.1484 23.4437 14.2794 23.124 14.5036L23.0752 14.588C23.4015 14.3349 23.81 14.1862 24.2562 14.1862C24.7025 14.1862 25.1109 14.3371 25.4373 14.588L25.3884 14.5036L25.384 14.5059Z" fill="#003976"/>
<path d="M22.3424 15.8201L22.2914 15.9044C22.2825 15.9755 22.2803 16.0487 22.2803 16.122C22.2803 16.2152 22.2869 16.3085 22.3003 16.3995H22.338C22.3247 16.3085 22.318 16.2174 22.318 16.122C22.318 16.0199 22.3269 15.9177 22.3424 15.8201Z" fill="#003976"/>
<path d="M26.2141 15.9043C26.223 15.9753 26.2252 16.0486 26.2252 16.1219C26.2252 16.2018 26.2208 16.2817 26.2119 16.3616H26.2497C26.2585 16.2839 26.263 16.204 26.263 16.1219C26.263 16.073 26.263 16.0264 26.2585 15.9798L26.2141 15.9043Z" fill="#009CDC"/>
<path d="M25.3389 14.4303C25.0259 14.2282 24.6529 14.1128 24.2533 14.1128C23.8537 14.1128 23.4807 14.2305 23.1677 14.4303L23.1211 14.508C23.4408 14.2837 23.8315 14.1528 24.2511 14.1528C24.6707 14.1528 25.0614 14.2837 25.3811 14.5102L25.3344 14.4325L25.3389 14.4303Z" fill="#009CDC"/>
<path d="M22.293 15.9043L22.2486 15.9798C22.2464 16.0264 22.2441 16.0752 22.2441 16.1219C22.2441 16.2151 22.2508 16.3083 22.2619 16.3994H22.2996C22.2863 16.3083 22.2797 16.2173 22.2797 16.1219C22.2797 16.0486 22.2841 15.9753 22.2908 15.9043H22.293Z" fill="#009CDC"/>
<path d="M26.2589 15.98C26.2633 16.0266 26.2633 16.0754 26.2633 16.1221C26.2633 16.202 26.2589 16.2819 26.25 16.3618H26.2877C26.2966 16.2841 26.3011 16.2042 26.3011 16.1221C26.3011 16.0976 26.3011 16.0732 26.3011 16.051L26.2589 15.98Z" fill="#00AD8E"/>
<path d="M25.2979 14.3594C24.9916 14.1773 24.6364 14.073 24.2545 14.073C23.8727 14.073 23.5175 14.1773 23.2111 14.3594L23.1689 14.4304C23.482 14.2284 23.8549 14.113 24.2545 14.113C24.6541 14.113 25.0271 14.2306 25.3401 14.4304L25.2979 14.3594Z" fill="#00AD8E"/>
<path d="M22.2492 15.98L22.207 16.051C22.207 16.0754 22.207 16.0976 22.207 16.1221C22.207 16.2175 22.2137 16.3085 22.2248 16.3996H22.2625C22.2492 16.3085 22.2448 16.2153 22.2448 16.1221C22.2448 16.0732 22.2448 16.0266 22.2492 15.98Z" fill="#00AD8E"/>
<path d="M26.3004 16.0508C26.3004 16.0752 26.3004 16.0974 26.3004 16.1218C26.3004 16.204 26.296 16.2839 26.2871 16.3616H26.3248C26.3337 16.2817 26.3382 16.2017 26.3382 16.1218V16.1174L26.2982 16.0508H26.3004Z" fill="#FFF200"/>
<path d="M25.2568 14.2927C24.9593 14.1284 24.6174 14.0352 24.2534 14.0352C23.8893 14.0352 23.5474 14.1284 23.2499 14.2927L23.21 14.3593C23.5163 14.1772 23.8715 14.0729 24.2534 14.0729C24.6352 14.0729 24.9904 14.1772 25.2968 14.3593L25.2568 14.2927Z" fill="#FFF200"/>
<path d="M22.207 16.0508L22.167 16.1174V16.1218C22.167 16.2151 22.1737 16.3083 22.1848 16.3993H22.2225C22.2092 16.3105 22.2047 16.2173 22.2047 16.1218C22.2047 16.0974 22.2047 16.073 22.2047 16.0508H22.207Z" fill="#FFF200"/>
<path d="M26.3405 16.1177V16.1221C26.3405 16.202 26.336 16.282 26.3271 16.3619H26.3649C26.3715 16.3019 26.376 16.242 26.3782 16.1798L26.3405 16.1177Z" fill="#FAAB54"/>
<path d="M25.2191 14.2307C24.9283 14.0819 24.5998 13.9976 24.2534 13.9976C23.9071 13.9976 23.5763 14.0819 23.2877 14.2307L23.25 14.2928C23.5475 14.1285 23.8894 14.0353 24.2534 14.0353C24.6175 14.0353 24.9594 14.1285 25.2569 14.2928L25.2191 14.2307Z" fill="#FAAB54"/>
<path d="M22.1666 16.1177L22.1289 16.1798C22.1289 16.2531 22.1356 16.3264 22.1467 16.3996H22.1844C22.1733 16.3086 22.1666 16.2176 22.1666 16.1221V16.1177Z" fill="#FAAB54"/>
<path d="M26.3786 16.1799C26.3786 16.2421 26.3719 16.302 26.3652 16.362H26.403C26.4074 16.322 26.4096 16.2821 26.4119 16.2399L26.3763 16.1799H26.3786Z" fill="#ED1C2E"/>
<path d="M25.184 14.1684C24.902 14.033 24.5868 13.9575 24.2538 13.9575C23.9208 13.9575 23.6055 14.033 23.3236 14.1684L23.2881 14.2284C23.5789 14.0796 23.9075 13.9953 24.2538 13.9953C24.6001 13.9953 24.9309 14.0796 25.2195 14.2284L25.184 14.1684Z" fill="#ED1C2E"/>
<path d="M22.094 16.2397C22.0962 16.2929 22.1007 16.3462 22.1073 16.3973H22.1451C22.1362 16.3262 22.1295 16.253 22.1273 16.1775L22.0918 16.2374L22.094 16.2397Z" fill="#ED1C2E"/>
<path d="M23.168 16.4949C23.2168 16.4949 23.35 16.4993 23.3811 16.4993C23.4122 16.4993 23.4455 16.5326 23.3811 16.5326C23.3167 16.5326 23.2124 16.5371 23.1968 16.5371L23.1702 16.4971L23.168 16.4949Z" fill="#003976"/>
<path d="M23.2393 16.5947C23.2703 16.5947 23.3303 16.5881 23.3503 16.5903C23.3702 16.5903 23.3791 16.6081 23.3503 16.6125C23.3214 16.6169 23.2837 16.6236 23.2548 16.6258L23.2393 16.5947Z" fill="#003976"/>
<path d="M24.0918 16.4814C24.1207 16.4881 24.2916 16.4814 24.3227 16.4814V16.5125C24.2516 16.5125 24.1406 16.5258 24.1096 16.5236L24.0918 16.4814Z" fill="#003976"/>
<path d="M24.9463 16.448C24.9929 16.448 25.0795 16.4525 25.1084 16.4525V16.4769C25.0551 16.4769 24.9796 16.4835 24.964 16.4835L24.9485 16.4458L24.9463 16.448Z" fill="#003976"/>
<path d="M25.5078 16.4571C25.5589 16.4526 25.6699 16.4571 25.6987 16.4571V16.4859C25.6344 16.4859 25.5589 16.4904 25.53 16.4904L25.5078 16.4548V16.4571Z" fill="#003976"/>
<path d="M26.6643 16.6633C26.5932 16.6656 26.4933 16.6744 26.4689 16.6811C26.4401 16.6878 26.4267 16.7211 26.4778 16.7122C26.5178 16.7055 26.6265 16.7011 26.6843 16.6989L26.6643 16.6633Z" fill="#003976"/>
<path d="M21.8271 16.6879C21.8937 16.6879 22.0447 16.7035 22.1224 16.7146L22.2023 16.6724C22.1535 16.6657 21.9448 16.6479 21.8516 16.6479L21.8271 16.6879Z" fill="#003976"/>
<path d="M21.893 16.5746L21.873 16.6101C21.9774 16.5857 22.1705 16.5946 22.2749 16.619L22.3104 16.5857C22.2327 16.548 21.9951 16.5568 21.8952 16.5746H21.893Z" fill="#003976"/>
<path d="M21.9557 16.4727L21.918 16.5371C22.0489 16.5082 22.2843 16.4838 22.3997 16.5104L22.433 16.4794C22.3042 16.435 22.0578 16.4616 21.9535 16.4727H21.9557Z" fill="#003976"/>
<path d="M22.5591 17.547C22.5347 17.5404 22.568 17.5226 22.6013 17.5071C22.7434 17.4449 22.9276 17.4804 23.0142 17.4982C23.1008 17.5159 23.0897 17.5337 23.0653 17.5426C23.1629 17.5426 23.2628 17.5404 23.3494 17.5359C23.285 17.5359 23.2096 17.5182 23.0741 17.4738C22.8832 17.4116 22.6279 17.4471 22.5413 17.4738C22.4703 17.496 22.3859 17.5115 22.2949 17.4959C22.3793 17.5204 22.4703 17.5381 22.5591 17.547Z" fill="#003976"/>
<path d="M26.4688 16.3328C26.3267 16.3328 25.9293 16.3505 25.7939 16.3572C25.6429 16.3661 24.9658 16.3683 24.7993 16.3661C24.6328 16.3616 23.8159 16.3816 23.5783 16.3816C23.3408 16.3816 22.2463 16.3705 22.0177 16.3661L21.9844 16.4238C22.1154 16.4238 22.7392 16.4327 22.9456 16.4282C23.1676 16.4238 23.7448 16.4327 23.9446 16.4282C24.1444 16.4238 24.6173 16.4082 24.7083 16.4127C24.7993 16.4171 25.4631 16.4127 25.5874 16.4038C25.7051 16.3971 26.1469 16.386 26.4954 16.3772L26.4688 16.3328Z" fill="#003976"/>
<path d="M26.5226 16.4216C26.4027 16.4239 26.2251 16.4327 26.1963 16.4372C26.1652 16.4416 26.1297 16.4705 26.2052 16.4638C26.2673 16.4594 26.456 16.4594 26.5426 16.4594L26.5204 16.4216H26.5226Z" fill="#003976"/>
<path d="M26.5694 16.5015C26.4784 16.5015 26.2963 16.5103 26.2697 16.5148C26.2408 16.5214 26.2209 16.5592 26.2764 16.5481C26.3208 16.5392 26.505 16.5348 26.5894 16.5348L26.5694 16.5015Z" fill="#003976"/>
<path d="M26.62 16.5904C26.5357 16.5948 26.3958 16.6103 26.3669 16.6103C26.3359 16.6103 26.3048 16.6436 26.3669 16.6414C26.418 16.6414 26.5712 16.6259 26.6378 16.6214L26.6178 16.5881L26.62 16.5904Z" fill="#003976"/>
<path d="M27.0106 17.2474C26.9307 17.2518 26.8241 17.2319 26.7797 17.2163C26.7286 17.1963 26.6842 17.1897 26.7531 17.2274C26.813 17.2629 26.9595 17.2896 27.035 17.2874L27.0106 17.2474Z" fill="#003976"/>
<path d="M27.0681 17.3427C26.9793 17.3427 26.795 17.3161 26.6641 17.2539C26.5175 17.1829 26.3266 17.2095 26.1623 17.2295C25.856 17.2695 25.7006 17.2495 25.4497 17.1895C25.1989 17.1318 24.8614 17.1385 24.746 17.1851C24.6305 17.2317 24.655 17.2473 24.7771 17.2251C24.9014 17.2006 25.1878 17.1673 25.4342 17.2339C25.6806 17.3005 25.9159 17.3116 26.0669 17.3005C26.2178 17.2894 26.3422 17.2739 26.4043 17.2761C26.4687 17.2806 26.4598 17.3005 26.4043 17.3072C25.947 17.3649 25.7561 17.3805 25.4941 17.3072C25.2322 17.2339 24.988 17.2606 24.8148 17.2828C24.6394 17.3072 24.464 17.2939 24.302 17.2317C24.1399 17.1696 24.0112 17.1496 23.9113 17.1807C23.8757 17.1918 23.8646 17.2117 23.9224 17.2051C23.9823 17.1962 24.1488 17.1962 24.2931 17.2628C24.4352 17.3294 24.655 17.3449 24.8503 17.3183C25.0457 17.2917 25.2832 17.2606 25.4897 17.3449C25.6961 17.4315 25.9359 17.4115 26.1468 17.3805C26.3577 17.3494 26.4998 17.3094 26.6685 17.3538C26.815 17.3916 27.0148 17.4027 27.0992 17.3938L27.0681 17.3405V17.3427Z" fill="#003976"/>
<path d="M27.1236 17.4382C27.0304 17.4538 26.7884 17.4382 26.6841 17.4116C26.5686 17.3849 26.3822 17.4071 26.1158 17.4582C25.8493 17.5093 25.5585 17.4227 25.4076 17.3872C25.2566 17.3516 25.0701 17.3472 24.9347 17.3627C24.7993 17.3783 24.5839 17.4049 24.2776 17.3161C23.898 17.2051 23.6959 17.254 23.6005 17.2806C23.505 17.3072 23.303 17.3072 23.0877 17.2495C22.8723 17.1918 22.677 17.2073 22.546 17.2406C22.415 17.2762 22.2152 17.3028 22.0332 17.2495C21.8644 17.1985 21.6469 17.1985 21.5159 17.2073L21.4893 17.2517C21.6047 17.2318 21.8689 17.2251 22.0287 17.2873C22.2196 17.3605 22.4794 17.3317 22.566 17.3028C22.7613 17.2406 22.8879 17.2517 23.0788 17.3117C23.2142 17.3539 23.4673 17.3605 23.6316 17.3206C23.898 17.254 24.0489 17.2939 24.2687 17.3627C24.4885 17.4338 24.7904 17.4404 24.9525 17.4293C25.1145 17.4182 25.2544 17.3783 25.4542 17.4404C25.654 17.5026 25.9204 17.547 26.1491 17.4915C26.3799 17.436 26.5864 17.4293 26.693 17.4493C26.7951 17.4671 26.9793 17.4937 27.1392 17.4693L27.1192 17.436L27.1236 17.4382Z" fill="#003976"/>
<path d="M27.1677 17.5137C27.0966 17.5226 26.9368 17.527 26.7836 17.5071C26.535 17.4738 26.3529 17.4915 26.1909 17.5315C25.9445 17.5892 25.8046 17.5714 25.607 17.5226C25.4072 17.476 25.2252 17.4649 25.0032 17.4871C24.7812 17.5115 24.4504 17.4715 24.1951 17.4049C23.9398 17.3383 23.7333 17.365 23.5469 17.4138C23.3604 17.4604 23.0696 17.4094 22.9785 17.3672C22.8875 17.325 22.7521 17.3206 22.5678 17.3583C22.3858 17.3983 22.2215 17.385 22.035 17.3339C21.8597 17.2873 21.631 17.2673 21.4689 17.2917L21.4512 17.3228C21.5711 17.3095 21.8685 17.3006 22.0395 17.365C22.2393 17.4382 22.4613 17.416 22.5767 17.3916C22.6922 17.3672 22.892 17.3605 22.9785 17.4027C23.165 17.496 23.4603 17.476 23.5668 17.4449C23.8088 17.3783 23.9886 17.3783 24.1951 17.4405C24.4016 17.5026 24.779 17.5426 25.0143 17.5115C25.1719 17.4893 25.4117 17.5004 25.607 17.5537C25.8024 17.6092 25.9933 17.6158 26.2109 17.5581C26.4306 17.5004 26.6682 17.5159 26.7992 17.5337C26.9235 17.5515 27.0234 17.567 27.1877 17.5448L27.1677 17.5093V17.5137Z" fill="#003976"/>
<path d="M27.2238 17.6049C27.1483 17.6116 26.8996 17.6138 26.7931 17.6049C26.6776 17.5938 26.4912 17.565 26.2847 17.6249C26.0782 17.6826 25.783 17.676 25.6209 17.6205C25.4589 17.565 25.248 17.5472 25.0526 17.5738C24.8572 17.6005 24.6108 17.6205 24.3178 17.5339C24.0225 17.4473 23.9071 17.4318 23.5985 17.5139C23.4675 17.5494 22.8348 17.5406 22.655 17.5494C22.4752 17.5583 22.2532 17.4917 22.1177 17.4362C21.989 17.3851 21.656 17.3607 21.4162 17.3874L21.3874 17.434C21.6138 17.3874 21.9091 17.4296 22.0223 17.4939C21.878 17.4584 21.5294 17.4739 21.343 17.5072L21.3008 17.5761C21.596 17.5117 22.0356 17.5272 22.1954 17.5627C22.3753 17.6027 22.6683 17.6338 22.8592 17.5872C23.0435 17.5428 23.3387 17.5983 23.5186 17.6693H24.3444C24.2156 17.5894 24.0625 17.636 23.9515 17.6449C23.8316 17.656 23.7161 17.6294 23.6606 17.5938C23.6051 17.5583 23.6606 17.5627 23.7561 17.5361C24.0336 17.4562 24.249 17.5494 24.4088 17.6693H25.0593C25.2346 17.5494 25.39 17.6094 25.4811 17.6427C25.5033 17.6516 25.5543 17.6604 25.6187 17.6693H26.3047C26.4712 17.6027 26.691 17.6271 26.7975 17.6427C26.9019 17.6582 27.0417 17.6738 27.2415 17.6427L27.2193 17.6071L27.2238 17.6049Z" fill="#003976"/>
<path d="M26.7491 16.8057C26.3273 16.7991 26.1497 16.5504 25.992 16.2907C25.9121 16.2951 25.7967 16.3062 25.7212 16.3018C25.7101 16.3418 25.6568 16.4727 25.6257 16.5749C25.5347 16.5171 25.4392 16.3218 25.3837 16.2108C25.3393 16.2108 25.2483 16.2152 25.1773 16.2063C25.1484 16.2641 25.0663 16.4572 25.0308 16.5349C24.9642 16.4639 24.7999 16.2263 24.7399 16.1331C24.6645 16.1286 24.5535 16.1442 24.4647 16.1442C24.4158 16.284 24.3204 16.4927 24.2027 16.6126C24.1161 16.526 23.9474 16.2152 23.8919 16.082C23.8364 16.082 23.7254 16.1064 23.661 16.1064C23.6055 16.2152 23.4457 16.5438 23.3502 16.7147C23.1904 16.5504 22.9928 16.2152 22.8574 15.9888L22.6665 16.0043C22.4267 16.6725 22.0138 16.7658 21.7629 16.7902L21.5742 17.1077C21.6719 17.1077 21.834 17.1254 21.9538 17.1632C22.0893 17.2053 22.3401 17.2364 22.5355 17.1676C22.7308 17.0966 22.9373 17.1099 23.1393 17.1476C23.3413 17.1876 23.6832 17.2098 23.9829 17.0655C24.3648 17.2564 24.6067 17.1521 24.7932 17.1121C24.9797 17.0721 25.2394 17.0455 25.437 17.1077C25.699 17.1898 26.0364 17.1898 26.2851 17.1232C26.5848 17.0433 26.7624 17.1987 26.9888 17.2098L26.7468 16.8035L26.7491 16.8057Z" fill="#00AD8E"/>
<path d="M22.6682 16.0065C22.6838 16.3617 22.888 16.7347 23.3964 17.1787C23.4275 17.1787 23.4785 17.1787 23.5096 17.1787C23.3742 17.0455 23.0701 16.7125 22.9657 16.5504C22.9613 16.5238 22.9568 16.4949 22.9568 16.4749C23.2366 16.7924 23.443 17.0388 23.7094 17.1565C23.7583 17.1476 23.8226 17.1321 23.867 17.1165C23.4253 16.8878 23.1833 16.5526 22.8569 15.991C22.7926 15.9976 22.7126 15.9998 22.666 16.0065H22.6682Z" fill="#FFE01B"/>
<path d="M24.5558 16.142C24.4803 16.3729 24.3893 16.5904 24.2583 16.7036C24.2805 16.7281 24.3138 16.7569 24.3382 16.7791C24.3937 16.7369 24.4648 16.6526 24.4825 16.6326C24.5158 16.6481 24.5292 16.7147 24.4381 16.8679C24.5536 16.9456 24.7489 17.0544 24.8866 17.0966C24.7711 17.1143 24.6313 17.1543 24.5691 17.1654C24.3138 16.9811 24.114 16.8568 23.9187 16.526C23.8898 16.6504 23.9098 16.7103 23.9986 16.8102C24.0785 16.899 24.2028 17.0411 24.4426 17.1787C24.3005 17.1832 24.1518 17.1521 23.983 17.0677C23.8876 16.9079 23.6967 16.5482 23.6611 16.1065C23.73 16.1065 23.8276 16.0843 23.892 16.082C23.9631 16.2419 24.1029 16.5061 24.2028 16.6126C24.2872 16.5283 24.4004 16.3396 24.4648 16.1442C24.4892 16.1442 24.5425 16.142 24.5558 16.1398V16.142Z" fill="#FFE01B"/>
<path d="M25.2456 16.2129C25.2212 16.3284 25.1435 16.506 25.088 16.6014C25.0725 16.5837 25.0436 16.557 25.0303 16.5371L25.1768 16.2085C25.1946 16.2085 25.2323 16.2129 25.2456 16.2129Z" fill="#FFE01B"/>
<path d="M25.1084 16.6838C25.1306 16.6949 25.1706 16.726 25.1861 16.7326C25.2327 16.6616 25.2416 16.6061 25.2305 16.4995C25.1772 16.5417 25.1706 16.6394 25.1084 16.6838Z" fill="#FFE01B"/>
<path d="M25.6279 16.577C25.6501 16.597 25.6768 16.6148 25.6945 16.6281C25.7345 16.5193 25.7811 16.3772 25.7922 16.304C25.7656 16.304 25.7434 16.304 25.7234 16.304C25.6834 16.4172 25.639 16.5393 25.6279 16.577Z" fill="#FFE01B"/>
</g>
<defs>
<clipPath id="clip0_211_1857">
<rect width="48.3137" height="32" fill="white"/>
</clipPath>
</defs>
</svg>
