<svg width="42" height="42" viewBox="0 0 42 42" fill="none" xmlns="http://www.w3.org/2000/svg">
<path d="M22.5059 28.3933C22.5059 28.3933 25.7539 31.5895 30.6631 32.1011" stroke="#9FAEFF" stroke-width="2" stroke-miterlimit="10" stroke-linecap="round"/>
<path d="M14.3478 20.2361C14.3478 20.2361 10.4101 16.988 9.89844 12.0789" stroke="#9FAEFF" stroke-width="2" stroke-miterlimit="10" stroke-linecap="round"/>
<path d="M22.4532 37.1809C27.4365 40.8294 32.7239 41.7786 37.5144 36.9881L39.398 35.1045C40.3027 34.1998 40.5103 32.8131 39.9171 31.6785C38.5081 29.0163 33.3171 25.9759 33.3171 25.9759C32.1455 25.3084 30.7217 25.2343 30.0543 26.4282C30.0543 26.4282 28.3709 28.4527 27.9408 28.7419C25.9831 30.0693 24.1662 30.0174 22.3346 28.1857L18.078 23.9291L13.8214 19.6726C11.9897 17.8409 11.9378 16.0241 13.2652 14.0663C13.5544 13.6362 15.5789 11.9529 15.5789 11.9529C16.7728 11.2855 16.6987 9.86166 16.0313 8.68998C16.0313 8.68998 12.9909 3.49903 10.3286 2.09006C9.19405 1.48939 7.80732 1.69703 6.90261 2.60915L5.01904 4.49273C0.287857 9.20166 1.14066 14.4074 4.66309 19.324" stroke="#021992" stroke-width="2" stroke-miterlimit="10" stroke-linecap="round"/>
</svg>
